<mxfile host="app.diagrams.net" modified="2021-08-30T12:04:29.385Z" agent="5.0 (Windows NT 10.0; Win64; x64) AppleWebKit/537.36 (KHTML, like Gecko) Chrome/92.0.4515.159 Safari/537.36" etag="2WG0H1K14XNzU3bXrpfP" version="15.0.3" type="github">
  <diagram id="S8hB8a-emogUZH-7xJo2" name="Page-1">
    <mxGraphModel dx="1583" dy="691" grid="1" gridSize="10" guides="1" tooltips="1" connect="1" arrows="1" fold="1" page="1" pageScale="1" pageWidth="827" pageHeight="1169" math="0" shadow="0">
      <root>
        <mxCell id="0" />
        <mxCell id="1" parent="0" />
        <mxCell id="2sCC9hUpijujfIOv7eqo-1" value="회원" style="swimlane;childLayout=stackLayout;horizontal=1;startSize=30;horizontalStack=0;rounded=1;fontSize=14;fontStyle=0;strokeWidth=2;resizeParent=0;resizeLast=1;shadow=0;dashed=0;align=center;" vertex="1" parent="1">
          <mxGeometry x="310" y="570" width="170" height="130" as="geometry" />
        </mxCell>
        <mxCell id="2sCC9hUpijujfIOv7eqo-2" value="회원번호 : long&#xa;ID : String&#xa;PW : String&#xa;주소번호 : int" style="align=left;strokeColor=none;fillColor=none;spacingLeft=4;fontSize=14;verticalAlign=top;resizable=0;rotatable=0;part=1;" vertex="1" parent="2sCC9hUpijujfIOv7eqo-1">
          <mxGeometry y="30" width="170" height="100" as="geometry" />
        </mxCell>
        <mxCell id="2sCC9hUpijujfIOv7eqo-3" value="주소" style="swimlane;childLayout=stackLayout;horizontal=1;startSize=30;horizontalStack=0;rounded=1;fontSize=14;fontStyle=0;strokeWidth=2;resizeParent=0;resizeLast=1;shadow=0;dashed=0;align=center;" vertex="1" parent="1">
          <mxGeometry x="310" y="800" width="160" height="120" as="geometry" />
        </mxCell>
        <mxCell id="2sCC9hUpijujfIOv7eqo-4" value="주소번호: int&#xa;도,광역시 : String&#xa;시군구 : String&#xa;읍면동 : String" style="align=left;strokeColor=none;fillColor=none;spacingLeft=4;fontSize=14;verticalAlign=top;resizable=0;rotatable=0;part=1;labelBorderColor=none;" vertex="1" parent="2sCC9hUpijujfIOv7eqo-3">
          <mxGeometry y="30" width="160" height="90" as="geometry" />
        </mxCell>
        <mxCell id="2sCC9hUpijujfIOv7eqo-7" value="상품" style="swimlane;childLayout=stackLayout;horizontal=1;startSize=30;horizontalStack=0;rounded=1;fontSize=14;fontStyle=0;strokeWidth=2;resizeParent=0;resizeLast=1;shadow=0;dashed=0;align=center;" vertex="1" parent="1">
          <mxGeometry x="789" y="253" width="191" height="207" as="geometry" />
        </mxCell>
        <mxCell id="2sCC9hUpijujfIOv7eqo-8" value="상품 번호 : long&#xa;판매자 ID: long&#xa;상품 이름 : String&#xa;상품 설명 : String&#xa;상품 상태 : String&#xa;(판매중, 완료, 예약중)&#xa;상품 이미지 : String(배열)&#xa;카테고리 번호 : int&#xa;구매자 ID : long" style="align=left;strokeColor=none;fillColor=none;spacingLeft=4;fontSize=14;verticalAlign=top;resizable=0;rotatable=0;part=1;" vertex="1" parent="2sCC9hUpijujfIOv7eqo-7">
          <mxGeometry y="30" width="191" height="177" as="geometry" />
        </mxCell>
        <mxCell id="2sCC9hUpijujfIOv7eqo-9" value="카테고리" style="swimlane;childLayout=stackLayout;horizontal=1;startSize=30;horizontalStack=0;rounded=1;fontSize=14;fontStyle=0;strokeWidth=2;resizeParent=0;resizeLast=1;shadow=0;dashed=0;align=center;" vertex="1" parent="1">
          <mxGeometry x="800" y="540" width="160" height="120" as="geometry" />
        </mxCell>
        <mxCell id="2sCC9hUpijujfIOv7eqo-10" value="카테고리 번호 : int&#xa;카테고리 이름 : String" style="align=left;strokeColor=none;fillColor=none;spacingLeft=4;fontSize=14;verticalAlign=top;resizable=0;rotatable=0;part=1;" vertex="1" parent="2sCC9hUpijujfIOv7eqo-9">
          <mxGeometry y="30" width="160" height="90" as="geometry" />
        </mxCell>
        <mxCell id="2sCC9hUpijujfIOv7eqo-11" value="" style="edgeStyle=entityRelationEdgeStyle;fontSize=12;html=1;endArrow=ERoneToMany;exitX=1.019;exitY=0.377;exitDx=0;exitDy=0;exitPerimeter=0;" edge="1" parent="1" source="2sCC9hUpijujfIOv7eqo-10" target="2sCC9hUpijujfIOv7eqo-8">
          <mxGeometry width="100" height="100" relative="1" as="geometry">
            <mxPoint x="1240" y="645" as="sourcePoint" />
            <mxPoint x="830" y="640" as="targetPoint" />
          </mxGeometry>
        </mxCell>
        <mxCell id="2sCC9hUpijujfIOv7eqo-12" value="" style="edgeStyle=entityRelationEdgeStyle;fontSize=12;html=1;endArrow=ERoneToMany;exitX=0.5;exitY=0;exitDx=0;exitDy=0;entryX=0.5;entryY=1;entryDx=0;entryDy=0;" edge="1" parent="1" source="2sCC9hUpijujfIOv7eqo-3" target="2sCC9hUpijujfIOv7eqo-2">
          <mxGeometry width="100" height="100" relative="1" as="geometry">
            <mxPoint x="730" y="740" as="sourcePoint" />
            <mxPoint x="830" y="640" as="targetPoint" />
          </mxGeometry>
        </mxCell>
        <mxCell id="2sCC9hUpijujfIOv7eqo-18" value="상품 요청" style="swimlane;childLayout=stackLayout;horizontal=1;startSize=30;horizontalStack=0;rounded=1;fontSize=14;fontStyle=0;strokeWidth=2;resizeParent=0;resizeLast=1;shadow=0;dashed=0;align=center;" vertex="1" parent="1">
          <mxGeometry x="480" y="350" width="170" height="130" as="geometry" />
        </mxCell>
        <mxCell id="2sCC9hUpijujfIOv7eqo-19" value="요청 번호 : long&#xa;요청한 회원 ID : long&#xa;요청받은 상품 ID : long&#xa;상품 흥정 금액 : int&#xa;요청 상태 : String" style="align=left;strokeColor=none;fillColor=none;spacingLeft=4;fontSize=14;verticalAlign=top;resizable=0;rotatable=0;part=1;" vertex="1" parent="2sCC9hUpijujfIOv7eqo-18">
          <mxGeometry y="30" width="170" height="100" as="geometry" />
        </mxCell>
        <mxCell id="2sCC9hUpijujfIOv7eqo-20" value="" style="edgeStyle=entityRelationEdgeStyle;fontSize=12;html=1;endArrow=ERoneToMany;exitX=0.5;exitY=0;exitDx=0;exitDy=0;entryX=0.5;entryY=1;entryDx=0;entryDy=0;" edge="1" parent="1" source="2sCC9hUpijujfIOv7eqo-1" target="2sCC9hUpijujfIOv7eqo-19">
          <mxGeometry width="100" height="100" relative="1" as="geometry">
            <mxPoint x="390" y="560" as="sourcePoint" />
            <mxPoint x="370" y="320" as="targetPoint" />
          </mxGeometry>
        </mxCell>
        <mxCell id="2sCC9hUpijujfIOv7eqo-21" value="" style="edgeStyle=entityRelationEdgeStyle;fontSize=12;html=1;endArrow=ERoneToMany;entryX=1;entryY=0.25;entryDx=0;entryDy=0;exitX=0;exitY=0.25;exitDx=0;exitDy=0;" edge="1" parent="1" source="2sCC9hUpijujfIOv7eqo-8" target="2sCC9hUpijujfIOv7eqo-19">
          <mxGeometry width="100" height="100" relative="1" as="geometry">
            <mxPoint x="650" y="380" as="sourcePoint" />
            <mxPoint x="520" y="500" as="targetPoint" />
          </mxGeometry>
        </mxCell>
        <mxCell id="2sCC9hUpijujfIOv7eqo-26" value="요구사항" style="swimlane;fontStyle=0;childLayout=stackLayout;horizontal=1;startSize=26;horizontalStack=0;resizeParent=1;resizeParentMax=0;resizeLast=0;collapsible=1;marginBottom=0;align=center;fontSize=14;" vertex="1" parent="1">
          <mxGeometry x="1050" y="540" width="520" height="292" as="geometry" />
        </mxCell>
        <mxCell id="2sCC9hUpijujfIOv7eqo-27" value="1. 회원은 여러개의 상품을 등록, 취소 할 수 있다." style="text;strokeColor=none;fillColor=none;spacingLeft=4;spacingRight=4;overflow=hidden;rotatable=0;points=[[0,0.5],[1,0.5]];portConstraint=eastwest;fontSize=14;" vertex="1" parent="2sCC9hUpijujfIOv7eqo-26">
          <mxGeometry y="26" width="520" height="30" as="geometry" />
        </mxCell>
        <mxCell id="2sCC9hUpijujfIOv7eqo-28" value="2. 회원은 거래요청을 할 수 있다." style="text;strokeColor=none;fillColor=none;spacingLeft=4;spacingRight=4;overflow=hidden;rotatable=0;points=[[0,0.5],[1,0.5]];portConstraint=eastwest;fontSize=14;" vertex="1" parent="2sCC9hUpijujfIOv7eqo-26">
          <mxGeometry y="56" width="520" height="30" as="geometry" />
        </mxCell>
        <mxCell id="2sCC9hUpijujfIOv7eqo-29" value="3. 회원은 나의 구매목록, 판매목록을 조회할 수 있다.&#xa;&#xa;4. 회원은 상품을 검색할 수 있다.&#xa;&#xa;5. 상품검색을 카테고리별로 분류 할 수 있다." style="text;strokeColor=none;fillColor=none;spacingLeft=4;spacingRight=4;overflow=hidden;rotatable=0;points=[[0,0.5],[1,0.5]];portConstraint=eastwest;fontSize=14;" vertex="1" parent="2sCC9hUpijujfIOv7eqo-26">
          <mxGeometry y="86" width="520" height="206" as="geometry" />
        </mxCell>
        <mxCell id="2sCC9hUpijujfIOv7eqo-49" value="" style="edgeStyle=entityRelationEdgeStyle;fontSize=12;html=1;endArrow=ERoneToMany;entryX=0;entryY=0.75;entryDx=0;entryDy=0;" edge="1" parent="1" source="2sCC9hUpijujfIOv7eqo-2" target="2sCC9hUpijujfIOv7eqo-8">
          <mxGeometry width="100" height="100" relative="1" as="geometry">
            <mxPoint x="640" y="650" as="sourcePoint" />
            <mxPoint x="780" y="420" as="targetPoint" />
          </mxGeometry>
        </mxCell>
      </root>
    </mxGraphModel>
  </diagram>
</mxfile>
